solid OpenSCAD_Model
  facet normal -1 0 0
    outer loop
      vertex -22.5 34.8 10.5
      vertex -22.5 36.01 21
      vertex -22.5 36.01 10.5
    endloop
  endfacet
  facet normal -1 -0 0
    outer loop
      vertex -22.5 36.01 21
      vertex -22.5 34.8 10.5
      vertex -22.5 34.8 21
    endloop
  endfacet
  facet normal 0 0 -1
    outer loop
      vertex -22.5 34.8 10.5
      vertex -17.5 36.01 10.5
      vertex -17.5 34.8 10.5
    endloop
  endfacet
  facet normal -0 0 -1
    outer loop
      vertex -17.5 36.01 10.5
      vertex -22.5 34.8 10.5
      vertex -22.5 36.01 10.5
    endloop
  endfacet
  facet normal 1 -0 0
    outer loop
      vertex -17.5 34.8 21
      vertex -17.5 36.01 10.5
      vertex -17.5 36.01 21
    endloop
  endfacet
  facet normal 1 0 0
    outer loop
      vertex -17.5 36.01 10.5
      vertex -17.5 34.8 21
      vertex -17.5 34.8 10.5
    endloop
  endfacet
  facet normal -0 0 1
    outer loop
      vertex -22.5 36.01 21
      vertex -17.5 34.8 21
      vertex -17.5 36.01 21
    endloop
  endfacet
  facet normal 0 0 1
    outer loop
      vertex -17.5 34.8 21
      vertex -22.5 36.01 21
      vertex -22.5 34.8 21
    endloop
  endfacet
  facet normal 0 1 -0
    outer loop
      vertex -17.5 36.01 10.5
      vertex -22.5 36.01 21
      vertex -17.5 36.01 21
    endloop
  endfacet
  facet normal 0 1 0
    outer loop
      vertex -22.5 36.01 21
      vertex -17.5 36.01 10.5
      vertex -22.5 36.01 10.5
    endloop
  endfacet
  facet normal 0 -1 0
    outer loop
      vertex -22.5 34.8 10.5
      vertex -17.5 34.8 21
      vertex -22.5 34.8 21
    endloop
  endfacet
  facet normal 0 -1 -0
    outer loop
      vertex -17.5 34.8 21
      vertex -22.5 34.8 10.5
      vertex -17.5 34.8 10.5
    endloop
  endfacet
  facet normal -1 0 0
    outer loop
      vertex 17.5 34.8 10.5
      vertex 17.5 36.01 21
      vertex 17.5 36.01 10.5
    endloop
  endfacet
  facet normal -1 -0 0
    outer loop
      vertex 17.5 36.01 21
      vertex 17.5 34.8 10.5
      vertex 17.5 34.8 21
    endloop
  endfacet
  facet normal 0 0 -1
    outer loop
      vertex 17.5 34.8 10.5
      vertex 22.5 36.01 10.5
      vertex 22.5 34.8 10.5
    endloop
  endfacet
  facet normal -0 0 -1
    outer loop
      vertex 22.5 36.01 10.5
      vertex 17.5 34.8 10.5
      vertex 17.5 36.01 10.5
    endloop
  endfacet
  facet normal 1 -0 0
    outer loop
      vertex 22.5 34.8 21
      vertex 22.5 36.01 10.5
      vertex 22.5 36.01 21
    endloop
  endfacet
  facet normal 1 0 0
    outer loop
      vertex 22.5 36.01 10.5
      vertex 22.5 34.8 21
      vertex 22.5 34.8 10.5
    endloop
  endfacet
  facet normal -0 0 1
    outer loop
      vertex 17.5 36.01 21
      vertex 22.5 34.8 21
      vertex 22.5 36.01 21
    endloop
  endfacet
  facet normal 0 0 1
    outer loop
      vertex 22.5 34.8 21
      vertex 17.5 36.01 21
      vertex 17.5 34.8 21
    endloop
  endfacet
  facet normal 0 1 -0
    outer loop
      vertex 22.5 36.01 10.5
      vertex 17.5 36.01 21
      vertex 22.5 36.01 21
    endloop
  endfacet
  facet normal 0 1 0
    outer loop
      vertex 17.5 36.01 21
      vertex 22.5 36.01 10.5
      vertex 17.5 36.01 10.5
    endloop
  endfacet
  facet normal 0 -1 0
    outer loop
      vertex 17.5 34.8 10.5
      vertex 22.5 34.8 21
      vertex 17.5 34.8 21
    endloop
  endfacet
  facet normal 0 -1 -0
    outer loop
      vertex 22.5 34.8 21
      vertex 17.5 34.8 10.5
      vertex 22.5 34.8 10.5
    endloop
  endfacet
endsolid OpenSCAD_Model
